<svg width="37" height="28" viewBox="0 0 37 28" fill="none" xmlns="http://www.w3.org/2000/svg">
<path d="M36.945 15.7714C37.1256 15.2494 36.8489 14.68 36.3269 14.4994C35.805 14.3188 35.2355 14.5956 35.055 15.1175L36.945 15.7714ZM16.945 15.1175C16.7645 14.5956 16.195 14.3188 15.6731 14.4994C15.1511 14.68 14.8744 15.2494 15.055 15.7714L16.945 15.1175ZM25 27C25 27.5523 25.4477 28 26 28C26.5523 28 27 27.5523 27 27H25ZM31 6.05556H30V11.8333H31H32V6.05556H31ZM21 11.8333H22V6.05556H21H20V11.8333H21ZM26 16.8889V15.8889C23.8013 15.8889 22 14.0836 22 11.8333H21H20C20 15.1673 22.6759 17.8889 26 17.8889V16.8889ZM31 11.8333H30C30 14.0836 28.1988 15.8889 26 15.8889V16.8889V17.8889C29.3241 17.8889 32 15.1673 32 11.8333H31ZM26 1V2C28.1988 2 30 3.80529 30 6.05556H31H32C32 2.72161 29.3241 0 26 0V1ZM26 1V0C22.6759 0 20 2.72161 20 6.05556H21H22C22 3.80529 23.8013 2 26 2V1ZM36 15.4444L35.055 15.1175C33.7306 18.9457 30.1663 21.6667 26 21.6667V22.6667V23.6667C31.0673 23.6667 35.3582 20.3585 36.945 15.7714L36 15.4444ZM26 22.6667V21.6667C21.8337 21.6667 18.2694 18.9457 16.945 15.1175L16 15.4444L15.055 15.7714C16.6418 20.3585 20.9327 23.6667 26 23.6667V22.6667ZM26 22.6667H25V27H26H27V22.6667H26Z" fill="#282828"/>
<rect y="3" width="18" height="2" fill="#282828"/>
<rect y="15" width="12" height="2" fill="#282828"/>
<rect y="9" width="18" height="2" fill="#282828"/>
<rect y="21" width="16" height="2" fill="#282828"/>
</svg>
