<?xml version="1.0" encoding="UTF-8"?><svg id="_격리_모드" xmlns="http://www.w3.org/2000/svg" viewBox="0 0 74.32 18.25"><defs><style>.cls-1{fill:#fff;}</style></defs><path class="cls-1" d="M24.75,10.26h-.46v-1.82h-.85v5.97c0,.24.19.43.43.43s.43-.19.43-.43v-3.47h.46v3.47c0,.24.19.43.43.43s.43-.19.43-.43v-5.97h-.85v1.82Z"/><path class="cls-1" d="M36.45,12.34c0,.26.21.48.48.48s.48-.21.48-.48v-2.98c0-.32-.26-.58-.58-.58h-3.85v.67h3.47v2.89Z"/><path class="cls-1" d="M5.4,14.1h-3.1v-1.43h-.95v1.53c0,.32.26.58.57.58h3.48c.19,0,.34-.15.34-.34s-.15-.34-.34-.34Z"/><path class="cls-1" d="M6.14,10.14h-.57v-1.7h-.95v4.1c0,.26.21.48.48.48s.48-.21.48-.48v-1.73h.57c.19,0,.34-.15.34-.34s-.15-.34-.34-.34Z"/><path class="cls-1" d="M19.33,9.63h-.57v-1.19h-.95v2.95c0,.26.21.48.48.48s.48-.21.48-.48v-1.08h.57c.18,0,.34-.15.34-.34s-.15-.34-.34-.34Z"/><path class="cls-1" d="M3.73,10.69c0-.2-.06-.37-.19-.53-.15-.18-.5-.21-.64-.05-.13.14-.14.28-.09.51.09.44-.24.92-.72.92-.4,0-.73-.38-.73-.85,0-.44.28-.84.78-.84h1.75c.18,0,.34-.15.34-.34s-.15-.34-.34-.34h-1.31v-.83h-.99v.83H0v.67h.74c-.19.24-.3.53-.3.84,0,.81.74,1.46,1.65,1.46.96,0,1.65-.65,1.65-1.46Z"/><path class="cls-1" d="M31.44,14.1h-3.04s0-1.57,0-1.57h-.95v1.67c0,.32.26.58.57.58h3.42c.18,0,.34-.15.34-.34s-.15-.34-.34-.34Z"/><path class="cls-1" d="M37.9,13.26h-2.62v-2.25h-.95v2.25h-2.07v.67h5.64c.19,0,.34-.15.34-.34s-.15-.34-.34-.34Z"/><path class="cls-1" d="M50.41,11.16h-.75c.22-.3.27-.78.27-1.2v-.8c0-.32-.26-.58-.58-.58h-4v.67h3.62v.96c0,.3-.01.65-.17.94h-.98v-1.21h-.95v1.21h-2.35v.67h1.7c-.42.23-.75.81-.75,1.3s.21.88.64,1.22c.42.34.94.51,1.53.51s1.11-.17,1.54-.51c.43-.34.64-.73.64-1.22,0-.39-.15-.7-.46-.96-.2-.17-.51-.18-.7-.01-.17.16-.15.45.02.59.23.21.28.71-.19,1.1-.25.2-.53.3-.84.3s-.6-.1-.84-.3c-.24-.2-.36-.45-.36-.74,0-.87.96-1.28,1.46-1.28h2.53c.19,0,.34-.15.34-.34s-.15-.33-.34-.33Z"/><path class="cls-1" d="M56.73,10.1h-.57v-1.66h-.96v2.54c-.26.11-.63.18-.98.18h-2.16v-1.9h2c.19,0,.34-.15.34-.34s-.15-.34-.34-.34h-2.96v2.67c0,.32.26.58.58.58h2.46c.37,0,.8-.07,1.05-.2v.91c0,.26.21.48.48.48s.48-.21.48-.48v-1.78h.57c.19,0,.33-.15.33-.34s-.15-.34-.33-.34Z"/><path class="cls-1" d="M55.95,14.11h-3.01v-1.64h-.95v1.74c0,.32.26.58.58.58h3.39c.19,0,.34-.15.34-.34s-.15-.34-.34-.34Z"/><path class="cls-1" d="M31.17,13.03c.27,0,.48-.21.48-.48v-4.11h-.95v4.11c0,.26.21.48.48.48Z"/><path class="cls-1" d="M15.28,10.63c.25.39.75.69,1.16.86.41.17.75.2.88-.03.1-.16,0-.4-.16-.44-.24-.07-.67-.3-.89-.53-.29-.29-.45-.84-.49-1.23h.97c.18,0,.34-.15.34-.34s-.15-.34-.34-.34h-3.2v.67h1.24c-.03.39-.19.94-.49,1.23-.29.29-.73.5-1.2.62l.43.56c.73-.18,1.4-.57,1.75-1.04Z"/><path class="cls-1" d="M12.56,10.77h-.85c.21-.24.28-.65.28-1.05v-.57c0-.32-.26-.58-.58-.58h-3.98v.67h3.6v.79c0,.29-.04.56-.21.72h-4.22v.67h2.63v.86h-1.81v.67h3.53v1.38c0,.26.21.48.48.48s.48-.21.48-.48v-1.48c0-.32-.26-.58-.57-.58h-1.15v-.86h2.36c.19,0,.33-.15.33-.34s-.15-.34-.33-.34Z"/><path class="cls-1" d="M16.75,11.84c-1.05,0-1.91.7-1.91,1.57s.85,1.57,1.91,1.57,1.91-.7,1.91-1.57-.86-1.57-1.91-1.57ZM16.75,14.3c-.52,0-.94-.4-.94-.9s.42-.9.94-.9.94.4.94.9-.42.9-.94.9Z"/><path class="cls-1" d="M44.07,11.39h-1.13v-.97c.23-.23.36-.52.36-.82,0-.8-.91-1.45-2.04-1.45s-2.04.65-2.04,1.45c0,.32.15.61.39.85v.95h-1.45v.67h1.71c-.4.26-.7.71-.7,1.16s.2.84.61,1.16c.41.32.91.48,1.49.48s1.08-.16,1.49-.49c.41-.32.62-.69.62-1.16,0-.33-.2-.64-.41-.81-.22-.18-.51-.26-.72-.06-.12.12-.2.3.02.61.17.25.06.68-.23.92-.22.18-.48.28-.78.28s-.55-.09-.78-.28c-.22-.18-.33-.41-.33-.67,0-.68.74-1.14,1.43-1.14h2.45c.19,0,.34-.15.34-.34s-.15-.33-.34-.33ZM41.27,8.8c.59,0,1.06.35,1.06.79s-.47.79-1.06.79-1.06-.35-1.06-.79.48-.79,1.06-.79ZM40.57,11.39v-.44c.22.06.46.09.7.09s.51-.04.73-.1v.45h-1.44Z"/><path class="cls-1" d="M21.44,8.53c-.94,0-1.7.76-1.7,1.7s.76,1.7,1.7,1.7,1.7-.76,1.7-1.7-.76-1.7-1.7-1.7ZM21.44,11.22c-.41,0-.75-.44-.75-.98s.34-.98.75-.98.75.44.75.98-.34.98-.75.98Z"/><path class="cls-1" d="M29.85,10.24c0-.95-.81-1.71-1.8-1.71s-1.8.77-1.8,1.71.81,1.71,1.8,1.71,1.8-.77,1.8-1.71ZM27.19,10.24c0-.56.38-1.02.86-1.02s.86.46.86,1.02-.39,1.02-.86,1.02-.86-.46-.86-1.02Z"/><path class="cls-1" d="M74.3,5.48c-.16.68-1.39,1.27-3.2,1.64v.85c0,.6.6,1.19,1.49.92,1.08-.38,1.73-.86,1.73-1.39v-2.02s-.02-.01-.02,0Z"/><path class="cls-1" d="M59.44,5.15c0,.4.41.78,1.11,1.09.79-.35,1.25-.78,1.25-1.68v-.89c-.66.17-1.22.37-1.65.59-.45.27-.71.57-.71.89Z"/><path class="cls-1" d="M65.37,1.34c0,.74-.6,1.35-1.34,1.35s-1.34-.6-1.34-1.35.6-1.34,1.34-1.34,1.34.6,1.34,1.34Z"/><path class="cls-1" d="M62.71,9.65v2.82c0,.43.59.79,1.32.79s1.32-.35,1.32-.79v-2.52c-.95-.05-1.85-.16-2.64-.3Z"/><path class="cls-1" d="M68.17,7.48s-.93.04-1.42.04c-4.06,0-7.37-.92-7.56-2.08,0-.02,0-.03,0,0v2.06c0,1.21,3.39,2.19,7.56,2.19.12,0,.34,0,.34,0,.25,0,.46.2.46.46v7.32c0,.44.59.79,1.32.79s1.32-.35,1.32-.79v-7.96c0-1.11-.9-2.11-2.02-2.02Z"/><path class="cls-1" d="M73.34,4.25c-1.3-.67-3.76-1.11-6.58-1.11-.71,0-1.64.03-2.29.1-1.08.12-1.76.89-1.76,2v1.63c.79.15,1.68.25,2.64.31v-1.4c0-.25.2-.42.44-.45.32-.01.64-.02.97-.02.18,0,.35,0,.53,0,.13-.76.79-1.34,1.59-1.34.89,0,1.61.72,1.61,1.61h0c.98.17,1.83.39,2.48.66.7-.32,1.11-.69,1.11-1.09,0-.32-.26-.63-.73-.9Z"/><path class="cls-1" d="M70.22,5.59c0,.74-.6,1.34-1.34,1.34s-1.35-.6-1.35-1.34.6-1.35,1.35-1.35,1.34.6,1.34,1.35Z"/></svg>